<?xml version="1.0" standalone="no"?>
<!DOCTYPE svg PUBLIC "-//W3C//DTD SVG 20010904//EN"
 "http://www.w3.org/TR/2001/REC-SVG-20010904/DTD/svg10.dtd">
<svg version="1.0" xmlns="http://www.w3.org/2000/svg"
 width="367.000000pt" height="367.000000pt" viewBox="0 0 367.000000 367.000000"
 preserveAspectRatio="xMidYMid meet">
<metadata>
Created by potrace 1.14, written by Peter Selinger 2001-2017
</metadata>
<g transform="translate(0.000000,367.000000) scale(0.100000,-0.100000)"
fill="#000000" stroke="none">
<path d="M440 2130 l0 -70 35 0 35 0 0 -170 0 -170 -35 0 -35 0 0 -70 0 -70
260 0 260 0 0 135 0 135 -49 0 -49 0 -19 -62 -19 -63 -57 -3 -57 -3 0 71 0 70
50 0 50 0 0 49 0 50 -47 3 -48 3 -3 48 -3 47 59 0 58 0 18 -55 17 -55 50 0 49
0 0 125 0 125 -260 0 -260 0 0 -70z"/>
<path d="M1113 1997 l-103 -10 0 -53 c0 -51 1 -54 25 -54 25 0 25 0 25 -95 0
-95 0 -95 -25 -95 -24 0 -25 -3 -25 -55 l0 -55 119 0 119 0 4 140 c2 117 6
142 21 157 13 14 21 15 35 7 15 -10 17 -31 20 -158 l3 -146 119 0 120 0 0 55
c0 52 -1 55 -25 55 l-25 0 0 105 c0 123 -13 165 -62 195 -42 27 -122 22 -173
-10 l-35 -22 0 26 c0 19 -5 26 -17 24 -10 0 -64 -6 -120 -11z"/>
</g>
</svg>
