<svg width="24" height="24" viewBox="0 0 24 24" fill="none" xmlns="http://www.w3.org/2000/svg">
<path d="M8.86708 5.83512L4.96948 4.79992L5.67828 2.19192C5.7355 1.98661 5.87152 1.81222 6.05672 1.70673C6.24192 1.60125 6.4613 1.57321 6.66708 1.62872L9.00308 2.25592C9.10487 2.28286 9.20035 2.32963 9.28403 2.39354C9.36771 2.45746 9.43795 2.53727 9.49073 2.62839C9.5435 2.71951 9.57776 2.82015 9.59155 2.92454C9.60534 3.02894 9.59838 3.13502 9.57108 3.23672L8.86708 5.83512ZM1.63508 17.6047C1.59068 17.4612 1.58791 17.3081 1.62708 17.1631L4.53748 6.40152L8.43348 7.43672L5.52308 18.1983C5.4841 18.3438 5.40478 18.4752 5.29428 18.5775L2.96308 20.7327C2.93296 20.7601 2.89645 20.7795 2.85689 20.7891C2.81733 20.7987 2.77599 20.7983 2.73666 20.7878C2.69733 20.7773 2.66127 20.757 2.63178 20.729C2.60229 20.7009 2.58032 20.6659 2.56788 20.6271L1.63508 17.6047ZM15.9999 7.99992C12.3999 7.99992 11.1999 6.79992 11.1999 3.19992C14.7999 3.19992 15.9999 4.39992 15.9999 7.99992ZM13.7599 20.7743C11.5679 21.1103 8.75828 18.0447 8.12788 14.6943L9.55028 9.43992C10.1887 8.87992 10.9951 8.58712 11.8207 8.58712C12.7156 8.58344 13.5897 8.85674 14.3231 9.36952C14.5813 9.5428 14.8858 9.634 15.1968 9.63114C15.5077 9.62828 15.8105 9.53151 16.0655 9.35352C16.7412 8.85294 17.5606 8.58412 18.4015 8.58712C19.6335 8.58712 21.0303 9.36952 21.6815 10.5087C24.1391 14.8223 19.7711 21.2431 16.6511 20.7759C16.5081 20.7481 16.3704 20.6978 16.2431 20.6271C15.9207 20.4619 15.5637 20.3757 15.2015 20.3757C14.8392 20.3757 14.4822 20.4619 14.1599 20.6271C14.0349 20.6965 13.9 20.7462 13.7599 20.7743Z" fill="white"/>
</svg>
