<svg width="24" height="24" viewBox="0 0 24 24" fill="none" xmlns="http://www.w3.org/2000/svg">
<path d="M11.9998 16.5001C13.4832 16.5001 14.9333 16.0603 16.1666 15.2361C17.4 14.412 18.3613 13.2407 18.9289 11.8702C19.4966 10.4998 19.6451 8.9918 19.3557 7.53694C19.0663 6.08208 18.352 4.74571 17.3031 3.69682C16.2543 2.64792 14.9179 1.93362 13.463 1.64423C12.0082 1.35484 10.5002 1.50336 9.12972 2.07102C7.75928 2.63868 6.58794 3.59997 5.76383 4.83334C4.93972 6.06671 4.49985 7.51676 4.49985 9.00012C4.50208 10.9886 5.29298 12.8949 6.69901 14.301C8.10505 15.707 10.0114 16.4979 11.9998 16.5001ZM11.9998 3.00012C13.1865 3.00012 14.3466 3.35201 15.3333 4.0113C16.32 4.67059 17.089 5.60766 17.5431 6.70402C17.9973 7.80037 18.1161 9.00677 17.8846 10.1707C17.653 11.3345 17.0816 12.4036 16.2425 13.2428C15.4034 14.0819 14.3343 14.6533 13.1704 14.8848C12.0065 15.1163 10.8001 14.9975 9.70375 14.5434C8.60739 14.0893 7.67032 13.3202 7.01103 12.3335C6.35174 11.3468 5.99985 10.1868 5.99985 9.00012C6.00159 7.40935 6.63429 5.88424 7.75913 4.7594C8.88397 3.63455 10.4091 3.00186 11.9998 3.00012ZM19.2908 15.5157C19.3591 15.5868 19.4128 15.6706 19.4487 15.7625C19.4846 15.8543 19.502 15.9523 19.5 16.0508C19.498 16.1494 19.4766 16.2466 19.437 16.3369C19.3974 16.4272 19.3404 16.5088 19.2692 16.577C17.5042 18.279 15.196 19.3047 12.7498 19.4739V21.0001H14.9998C15.1988 21.0001 15.3895 21.0791 15.5302 21.2198C15.6708 21.3604 15.7498 21.5512 15.7498 21.7501C15.7498 21.949 15.6708 22.1398 15.5302 22.2804C15.3895 22.4211 15.1988 22.5001 14.9998 22.5001H8.99985C8.80094 22.5001 8.61017 22.4211 8.46952 22.2804C8.32887 22.1398 8.24985 21.949 8.24985 21.7501C8.24985 21.5512 8.32887 21.3604 8.46952 21.2198C8.61017 21.0791 8.80094 21.0001 8.99985 21.0001H11.2498V19.4729C9.26066 19.3305 7.35319 18.6244 5.7506 17.4375C4.14802 16.2505 2.9166 14.6317 2.20042 12.7705C1.48425 10.9092 1.31294 8.8825 1.70653 6.92745C2.10013 4.97239 3.04236 3.16986 4.42297 1.73074C4.49074 1.65793 4.57232 1.59932 4.66296 1.55833C4.75359 1.51734 4.85148 1.49479 4.95091 1.492C5.05035 1.4892 5.14934 1.50621 5.24214 1.54204C5.33494 1.57787 5.41968 1.6318 5.49143 1.7007C5.56319 1.76959 5.62052 1.85207 5.66009 1.94333C5.69967 2.0346 5.72069 2.13282 5.72194 2.23229C5.72318 2.33175 5.70463 2.43047 5.66736 2.5227C5.6301 2.61493 5.57485 2.69882 5.50485 2.76949C3.86993 4.46775 2.96658 6.73967 2.98897 9.0969C3.01136 11.4541 3.95771 13.7085 5.6246 15.3754C7.29149 17.0423 9.54584 17.9886 11.9031 18.011C14.2603 18.0334 16.5322 17.13 18.2305 15.4951C18.3738 15.3573 18.5661 15.282 18.7649 15.2859C18.9637 15.2897 19.1529 15.3724 19.2908 15.5157Z" fill="white"/>
</svg>
