<svg width="261" height="40" viewBox="0 0 261 40" fill="none" xmlns="http://www.w3.org/2000/svg">
<path d="M27.1055 18.7578V32H0.875V25.125H4.64453V7.80078H0.875V0.925781H27.1055V13.2891H22.1055L20.2305 7.80078H14.6445V12.8789H19.6445V17.9961H14.6445V25.125H20.2305L22.1055 18.7578H27.1055ZM54.918 18.7188V26.3555H57.6328V32H45.543V18.6797C45.543 18.1198 45.3607 17.625 44.9961 17.1953C44.6445 16.7656 44.2148 16.5508 43.707 16.5508C42.7565 16.5508 42.1576 17.026 41.9102 17.9766C41.6497 18.9531 41.5195 20.3203 41.5195 22.0781V26.3555H41.5586V32H29.3516V26.3555H32.1836V17.1172H29.3516V11.8438L41.5195 10.6719V13.6016C42.418 12.5339 43.4401 11.7786 44.5859 11.3359C45.7318 10.8932 47.0273 10.6719 48.4727 10.6719C52.7695 10.6719 54.918 13.3542 54.918 18.7188ZM70.9727 39.5977C68.1862 39.5977 65.25 39.2005 62.1641 38.4062V32.7617C63.8958 33.2956 65.3281 33.6992 66.4609 33.9727C67.5938 34.2591 68.707 34.4023 69.8008 34.4023C72.9518 34.4023 74.5273 32.8398 74.5273 29.7148C73.8112 30.3529 72.9323 30.8932 71.8906 31.3359C70.849 31.7786 69.6706 32 68.3555 32C66.4674 32 64.8724 31.5247 63.5703 30.5742C62.2682 29.6367 61.2852 28.3672 60.6211 26.7656C59.9701 25.1641 59.6445 23.3867 59.6445 21.4336C59.6445 19.4284 59.9766 17.6185 60.6406 16.0039C61.3047 14.3763 62.2878 13.0807 63.5898 12.1172C64.9049 11.1536 66.4935 10.6719 68.3555 10.6719C70.9206 10.6719 72.9779 11.7786 74.5273 13.9922L75.9336 11.082H85.875V17.1172H84V29.3633C84 31.6159 83.4596 33.5039 82.3789 35.0273C81.3112 36.5508 79.8008 37.6901 77.8477 38.4453C75.8945 39.2135 73.6029 39.5977 70.9727 39.5977ZM72.0469 26.6484C72.6589 26.6484 73.2188 26.4596 73.7266 26.082C74.2344 25.7044 74.5404 25.3333 74.6445 24.9688V17.8398C74.1497 16.8763 73.2318 16.3945 71.8906 16.3945C70.8229 16.3945 69.9635 16.8568 69.3125 17.7812C68.6745 18.7057 68.3555 19.9622 68.3555 21.5508C68.3555 23.0742 68.6745 24.3047 69.3125 25.2422C69.9635 26.1797 70.875 26.6484 72.0469 26.6484ZM104.879 26.1211V32H89.0781V26.1211H92.5156V8.11328H89.0781V2.80078L101.871 1.51172V26.1211H104.879ZM115.27 9.03125C113.642 9.03125 112.301 8.64714 111.246 7.87891C110.191 7.11068 109.664 6.00391 109.664 4.55859C109.664 3.11328 110.191 2.01953 111.246 1.27734C112.301 0.535156 113.655 0.164062 115.309 0.164062C116.962 0.164062 118.303 0.528646 119.332 1.25781C120.374 1.98698 120.895 3.08724 120.895 4.55859C120.895 6.00391 120.361 7.11068 119.293 7.87891C118.238 8.64714 116.897 9.03125 115.27 9.03125ZM122.457 26.1211V32H108.062V26.1211H110.582V17.1172H108.062V12.3125L119.938 11.082V26.1211H122.457ZM136.324 32.3516C133.655 32.3516 131.292 31.6484 129.234 30.2422L128.59 32H124.957V24.2852H129.312C129.482 25.2747 129.944 26.1602 130.699 26.9414C131.454 27.7227 132.327 28.1133 133.316 28.1133C133.694 28.1133 134.02 28.0091 134.293 27.8008C134.579 27.5924 134.723 27.2474 134.723 26.7656C134.723 26.2839 134.449 25.8477 133.902 25.457C133.342 25.0534 132.509 24.5911 131.402 24.0703C130.061 23.4062 128.967 22.8008 128.121 22.2539C127.262 21.707 126.52 20.9909 125.895 20.1055C125.27 19.207 124.957 18.1328 124.957 16.8828C124.957 15.5938 125.38 14.474 126.227 13.5234C127.073 12.5859 128.186 11.8763 129.566 11.3945C130.947 10.9128 132.451 10.6719 134.078 10.6719C136.201 10.6719 138.173 11.2318 139.996 12.3516L140.484 11.082H143.727V17.3125H139.957C139.632 16.4661 139.163 15.8021 138.551 15.3203C137.939 14.8385 137.223 14.5977 136.402 14.5977C135.439 14.5977 134.957 14.9036 134.957 15.5156C134.97 15.9323 135.224 16.2904 135.719 16.5898C136.214 16.8763 137.014 17.2669 138.121 17.7617C138.811 18.0482 139.443 18.3346 140.016 18.6211C140.589 18.9076 141.103 19.181 141.559 19.4414C142.47 19.9753 143.264 20.7305 143.941 21.707C144.618 22.6706 144.957 23.875 144.957 25.3203C144.957 26.8568 144.56 28.1458 143.766 29.1875C142.971 30.2422 141.917 31.0365 140.602 31.5703C139.286 32.0911 137.861 32.3516 136.324 32.3516ZM162.535 32H148.766V26.1211H151.246V8.11328H148.766V2.80078L160.641 1.51172V14.1289C161.148 13.1914 162.034 12.3841 163.297 11.707C164.573 11.0169 165.986 10.6719 167.535 10.6719C169.801 10.6719 171.513 11.3424 172.672 12.6836C173.831 14.0117 174.41 15.8802 174.41 18.2891V26.1211H176.891V32H164.996V19.2461C164.996 18.4648 164.768 17.8203 164.312 17.3125C163.87 16.8047 163.355 16.5508 162.77 16.5508C162.105 16.5508 161.585 16.7786 161.207 17.2344C160.829 17.6901 160.641 18.3021 160.641 19.0703V26.1211H162.535V32Z" fill="black"/>
<path d="M204.684 18.1523V32H179.723V25.0078H182.848V7.80078H179.723V0.925781H195.953V7.80078H192.848V25.0078H197.848L199.723 18.1523H204.684ZM213.961 32.3516C212.633 32.3516 211.428 32.0911 210.348 31.5703C209.254 31.0625 208.382 30.3268 207.73 29.3633C207.079 28.3997 206.754 27.2799 206.754 26.0039C206.754 24.6237 207.138 23.4518 207.906 22.4883C208.674 21.5508 209.677 20.8477 210.914 20.3789C212.164 19.9102 213.512 19.6758 214.957 19.6758C216.663 19.6758 218.303 19.9297 219.879 20.4375V19.5586C219.879 18.5169 219.436 17.7227 218.551 17.1758C217.678 16.6289 216.493 16.3555 214.996 16.3555C214.358 16.3555 213.642 16.4336 212.848 16.5898C212.053 16.7461 211.279 16.9609 210.523 17.2344C209.768 17.5078 209.111 17.8138 208.551 18.1523L207.984 17.918V12.2344C209.56 11.6745 211.168 11.2773 212.809 11.043C214.449 10.7956 215.979 10.6719 217.398 10.6719C225.315 10.6719 229.273 12.8984 229.273 17.3516V26.1211H231.109V32H221.109L220.23 28.7969C219.671 29.8906 218.798 30.7565 217.613 31.3945C216.428 32.0326 215.211 32.3516 213.961 32.3516ZM217.633 27.3516C218.062 27.3516 218.499 27.2799 218.941 27.1367C219.397 26.9935 219.71 26.8438 219.879 26.6875V23.4062C219.684 23.3802 219.371 23.3021 218.941 23.1719C218.499 23.0547 218.115 22.9961 217.789 22.9961C217.099 22.9961 216.546 23.2109 216.129 23.6406C215.725 24.0703 215.523 24.6432 215.523 25.3594C215.523 25.8932 215.712 26.362 216.09 26.7656C216.48 27.1562 216.995 27.3516 217.633 27.3516ZM251.266 32.3516C250.068 32.3516 248.98 32.1042 248.004 31.6094C247.04 31.1016 246.22 30.4831 245.543 29.7539L244.801 32H236.031V8.11328H233.512V2.80078L245.387 1.51172V13.1523C246.402 12.332 247.457 11.7135 248.551 11.2969C249.645 10.8802 250.686 10.6719 251.676 10.6719C253.525 10.6719 255.12 11.1536 256.461 12.1172C257.776 13.0807 258.759 14.3828 259.41 16.0234C260.061 17.6641 260.387 19.4805 260.387 21.4727C260.387 23.569 260.048 25.431 259.371 27.0586C258.694 28.6992 257.665 29.9948 256.285 30.9453C254.918 31.8828 253.245 32.3516 251.266 32.3516ZM248.434 26.6484C249.371 26.6484 250.146 26.1862 250.758 25.2617C251.37 24.3372 251.676 23.263 251.676 22.0391C251.676 20.5156 251.409 19.194 250.875 18.0742C250.341 16.9544 249.527 16.3945 248.434 16.3945C247.822 16.3945 247.223 16.5312 246.637 16.8047C246.051 17.0651 245.634 17.3581 245.387 17.6836V25.6719C245.686 25.9193 246.129 26.1471 246.715 26.3555C247.301 26.5508 247.874 26.6484 248.434 26.6484Z" fill="#007C05"/>
</svg>
