<svg width="196" height="30" viewBox="0 0 196 30" fill="none" xmlns="http://www.w3.org/2000/svg">
<path d="M20.0791 14.0684V24H0.40625V18.8438H3.2334V5.85059H0.40625V0.694336H20.0791V9.9668H16.3291L14.9229 5.85059H10.7334V9.65918H14.4834V13.4971H10.7334V18.8438H14.9229L16.3291 14.0684H20.0791ZM40.9385 14.0391V19.7666H42.9746V24H33.9072V14.0098C33.9072 13.5898 33.7705 13.2188 33.4971 12.8965C33.2334 12.5742 32.9111 12.4131 32.5303 12.4131C31.8174 12.4131 31.3682 12.7695 31.1826 13.4824C30.9873 14.2148 30.8896 15.2402 30.8896 16.5586V19.7666H30.9189V24H21.7637V19.7666H23.8877V12.8379H21.7637V8.88281L30.8896 8.00391V10.2012C31.5635 9.40039 32.3301 8.83398 33.1895 8.50195C34.0488 8.16992 35.0205 8.00391 36.1045 8.00391C39.3271 8.00391 40.9385 10.0156 40.9385 14.0391ZM52.9795 29.6982C50.8896 29.6982 48.6875 29.4004 46.373 28.8047V24.5713C47.6719 24.9717 48.7461 25.2744 49.5957 25.4795C50.4453 25.6943 51.2803 25.8018 52.1006 25.8018C54.4639 25.8018 55.6455 24.6299 55.6455 22.2861C55.1084 22.7646 54.4492 23.1699 53.668 23.502C52.8867 23.834 52.0029 24 51.0166 24C49.6006 24 48.4043 23.6436 47.4277 22.9307C46.4512 22.2275 45.7139 21.2754 45.2158 20.0742C44.7275 18.873 44.4834 17.54 44.4834 16.0752C44.4834 14.5713 44.7324 13.2139 45.2305 12.0029C45.7285 10.7822 46.4658 9.81055 47.4424 9.08789C48.4287 8.36523 49.6201 8.00391 51.0166 8.00391C52.9404 8.00391 54.4834 8.83398 55.6455 10.4941L56.7002 8.31152H64.1562V12.8379H62.75V22.0225C62.75 23.7119 62.3447 25.1279 61.5342 26.2705C60.7334 27.4131 59.6006 28.2676 58.1357 28.834C56.6709 29.4102 54.9521 29.6982 52.9795 29.6982ZM53.7852 19.9863C54.2441 19.9863 54.6641 19.8447 55.0449 19.5615C55.4258 19.2783 55.6553 19 55.7334 18.7266V13.3799C55.3623 12.6572 54.6738 12.2959 53.668 12.2959C52.8672 12.2959 52.2227 12.6426 51.7344 13.3359C51.2559 14.0293 51.0166 14.9717 51.0166 16.1631C51.0166 17.3057 51.2559 18.2285 51.7344 18.9316C52.2227 19.6348 52.9062 19.9863 53.7852 19.9863ZM78.4092 19.5908V24H66.5586V19.5908H69.1367V6.08496H66.5586V2.10059L76.1533 1.13379V19.5908H78.4092ZM86.2021 6.77344C84.9814 6.77344 83.9756 6.48535 83.1846 5.90918C82.3936 5.33301 81.998 4.50293 81.998 3.41895C81.998 2.33496 82.3936 1.51465 83.1846 0.958008C83.9756 0.401367 84.9912 0.123047 86.2314 0.123047C87.4717 0.123047 88.4775 0.396484 89.249 0.943359C90.0303 1.49023 90.4209 2.31543 90.4209 3.41895C90.4209 4.50293 90.0205 5.33301 89.2197 5.90918C88.4287 6.48535 87.4229 6.77344 86.2021 6.77344ZM91.5928 19.5908V24H80.7969V19.5908H82.6865V12.8379H80.7969V9.23438L89.7031 8.31152V19.5908H91.5928ZM101.993 24.2637C99.9912 24.2637 98.2188 23.7363 96.6758 22.6816L96.1924 24H93.4678V18.2139H96.7344C96.8613 18.9561 97.208 19.6201 97.7744 20.2061C98.3408 20.792 98.9951 21.085 99.7373 21.085C100.021 21.085 100.265 21.0068 100.47 20.8506C100.685 20.6943 100.792 20.4355 100.792 20.0742C100.792 19.7129 100.587 19.3857 100.177 19.0928C99.7568 18.79 99.1318 18.4434 98.3018 18.0527C97.2959 17.5547 96.4756 17.1006 95.8408 16.6904C95.1963 16.2803 94.6396 15.7432 94.1709 15.0791C93.7021 14.4053 93.4678 13.5996 93.4678 12.6621C93.4678 11.6953 93.7852 10.8555 94.4199 10.1426C95.0547 9.43945 95.8896 8.90723 96.9248 8.5459C97.96 8.18457 99.0879 8.00391 100.309 8.00391C101.9 8.00391 103.38 8.42383 104.747 9.26367L105.113 8.31152H107.545V12.9844H104.718C104.474 12.3496 104.122 11.8516 103.663 11.4902C103.204 11.1289 102.667 10.9482 102.052 10.9482C101.329 10.9482 100.968 11.1777 100.968 11.6367C100.978 11.9492 101.168 12.2178 101.539 12.4424C101.91 12.6572 102.511 12.9502 103.341 13.3213C103.858 13.5361 104.332 13.751 104.762 13.9658C105.191 14.1807 105.577 14.3857 105.919 14.5811C106.603 14.9814 107.198 15.5479 107.706 16.2803C108.214 17.0029 108.468 17.9062 108.468 18.9902C108.468 20.1426 108.17 21.1094 107.574 21.8906C106.979 22.6816 106.188 23.2773 105.201 23.6777C104.215 24.0684 103.146 24.2637 101.993 24.2637ZM121.651 24H111.324V19.5908H113.185V6.08496H111.324V2.10059L120.23 1.13379V10.5967C120.611 9.89355 121.275 9.28809 122.223 8.78027C123.18 8.2627 124.239 8.00391 125.401 8.00391C127.101 8.00391 128.385 8.50684 129.254 9.5127C130.123 10.5088 130.558 11.9102 130.558 13.7168V19.5908H132.418V24H123.497V14.4346C123.497 13.8486 123.326 13.3652 122.984 12.9844C122.652 12.6035 122.267 12.4131 121.827 12.4131C121.329 12.4131 120.938 12.584 120.655 12.9258C120.372 13.2676 120.23 13.7266 120.23 14.3027V19.5908H121.651V24Z" fill="white"/>
<path d="M153.263 13.6143V24H134.542V18.7559H136.886V5.85059H134.542V0.694336H146.715V5.85059H144.386V18.7559H148.136L149.542 13.6143H153.263ZM160.221 24.2637C159.225 24.2637 158.321 24.0684 157.511 23.6777C156.69 23.2969 156.036 22.7451 155.548 22.0225C155.06 21.2998 154.815 20.46 154.815 19.5029C154.815 18.4678 155.104 17.5889 155.68 16.8662C156.256 16.1631 157.008 15.6357 157.936 15.2842C158.873 14.9326 159.884 14.7568 160.968 14.7568C162.247 14.7568 163.478 14.9473 164.659 15.3281V14.6689C164.659 13.8877 164.327 13.292 163.663 12.8818C163.009 12.4717 162.12 12.2666 160.997 12.2666C160.519 12.2666 159.981 12.3252 159.386 12.4424C158.79 12.5596 158.209 12.7207 157.643 12.9258C157.076 13.1309 156.583 13.3604 156.163 13.6143L155.738 13.4385V9.17578C156.92 8.75586 158.126 8.45801 159.356 8.28223C160.587 8.09668 161.734 8.00391 162.799 8.00391C168.736 8.00391 171.705 9.67383 171.705 13.0137V19.5908H173.082V24H165.582L164.923 21.5977C164.503 22.418 163.849 23.0674 162.96 23.5459C162.071 24.0244 161.158 24.2637 160.221 24.2637ZM162.975 20.5137C163.297 20.5137 163.624 20.46 163.956 20.3525C164.298 20.2451 164.532 20.1328 164.659 20.0156V17.5547C164.513 17.5352 164.278 17.4766 163.956 17.3789C163.624 17.291 163.336 17.2471 163.092 17.2471C162.574 17.2471 162.159 17.4082 161.847 17.7305C161.544 18.0527 161.393 18.4824 161.393 19.0195C161.393 19.4199 161.534 19.7715 161.817 20.0742C162.11 20.3672 162.496 20.5137 162.975 20.5137ZM188.199 24.2637C187.301 24.2637 186.485 24.0781 185.753 23.707C185.03 23.3262 184.415 22.8623 183.907 22.3154L183.351 24H176.773V6.08496H174.884V2.10059L183.79 1.13379V9.86426C184.552 9.24902 185.343 8.78516 186.163 8.47266C186.983 8.16016 187.765 8.00391 188.507 8.00391C189.894 8.00391 191.09 8.36523 192.096 9.08789C193.082 9.81055 193.819 10.7871 194.308 12.0176C194.796 13.248 195.04 14.6104 195.04 16.1045C195.04 17.6768 194.786 19.0732 194.278 20.2939C193.771 21.5244 192.999 22.4961 191.964 23.209C190.938 23.9121 189.684 24.2637 188.199 24.2637ZM186.075 19.9863C186.778 19.9863 187.359 19.6396 187.818 18.9463C188.277 18.2529 188.507 17.4473 188.507 16.5293C188.507 15.3867 188.307 14.3955 187.906 13.5557C187.506 12.7158 186.896 12.2959 186.075 12.2959C185.616 12.2959 185.167 12.3984 184.728 12.6035C184.288 12.7988 183.976 13.0186 183.79 13.2627V19.2539C184.015 19.4395 184.347 19.6104 184.786 19.7666C185.226 19.9131 185.655 19.9863 186.075 19.9863Z" fill="#007C05"/>
</svg>
