<svg width="24" height="24" viewBox="0 0 24 24" fill="none" xmlns="http://www.w3.org/2000/svg">
<path d="M18 10.5V6L15.89 7.06C16.0325 7.64848 16.0395 8.26163 15.9104 8.85321C15.7814 9.44478 15.5197 9.99934 15.1451 10.475C14.7705 10.9507 14.2928 11.3352 13.748 11.5993C13.2032 11.8635 12.6055 12.0005 12 12C11.3945 12.0005 10.7968 11.8635 10.252 11.5993C9.70719 11.3352 9.22946 10.9507 8.85487 10.475C8.48028 9.99934 8.2186 9.44478 8.08957 8.85321C7.96054 8.26163 7.96752 7.64848 8.11 7.06L5 5.5L12 2L19 5.5V10.5H18ZM12 9L10 8C10 9.1 10.9 10 12 10C13.1 10 14 9.1 14 8L12 9ZM14.75 5.42L12.16 4.1L9.47 5.47L12.07 6.79L14.75 5.42ZM12 13C14.67 13 20 14.33 20 17V20H4V17C4 14.33 9.33 13 12 13ZM12 14.9C9 14.9 5.9 16.36 5.9 17V18.1H18.1V17C18.1 16.36 14.97 14.9 12 14.9Z" fill="white"/>
</svg>
